<svg width="240.701" height="72.001" viewBox="0 0 240.701 72.001" xmlns="http://www.w3.org/2000/svg"><g id="svgGroup" stroke-linecap="round" fill-rule="nonzero" font-size="9pt" stroke="#2b2b4f" stroke-width="0.25mm" fill="#2b2b4f" style="stroke:#2b2b4f;stroke-width:0.25mm;fill:#2b2b4f"><path d="M 122 3.2 L 147.4 41.9 L 143.1 41.7 L 169 3.2 A 6.066 6.066 0 0 1 170.207 1.891 A 4.534 4.534 0 0 1 173.1 0.9 A 5.022 5.022 0 0 1 176.547 2.256 A 6.493 6.493 0 0 1 176.65 2.35 A 4.756 4.756 0 0 1 178.197 5.796 A 6.099 6.099 0 0 1 178.2 6 L 178.2 65.9 A 5.675 5.675 0 0 1 177.918 67.726 A 4.819 4.819 0 0 1 176.8 69.55 A 4.677 4.677 0 0 1 173.964 70.945 A 6.537 6.537 0 0 1 173.1 71 A 6.442 6.442 0 0 1 171.402 70.788 A 4.755 4.755 0 0 1 169.25 69.55 A 4.894 4.894 0 0 1 167.806 66.172 A 6.47 6.47 0 0 1 167.8 65.9 L 167.8 15.2 L 171 15.9 L 149 49.4 A 6.026 6.026 0 0 1 147.756 50.587 A 7.306 7.306 0 0 1 147.2 50.95 A 4.02 4.02 0 0 1 145.95 51.441 Q 145.589 51.514 145.219 51.514 A 3.83 3.83 0 0 1 144.9 51.5 A 3.248 3.248 0 0 1 144.606 51.514 Q 144.007 51.514 143.393 51.294 A 4.804 4.804 0 0 1 142.65 50.95 A 6.829 6.829 0 0 1 141.555 50.189 A 5.462 5.462 0 0 1 140.8 49.4 L 119.6 16.4 L 122 12.4 L 122 65.9 A 5.893 5.893 0 0 1 121.742 67.682 A 4.854 4.854 0 0 1 120.65 69.55 A 4.482 4.482 0 0 1 117.702 70.972 A 6.17 6.17 0 0 1 117.1 71 A 4.965 4.965 0 0 1 115.351 70.703 A 4.413 4.413 0 0 1 113.65 69.55 A 4.992 4.992 0 0 1 112.33 66.537 A 6.664 6.664 0 0 1 112.3 65.9 L 112.3 6 A 4.814 4.814 0 0 1 113.755 2.495 A 6.074 6.074 0 0 1 113.85 2.4 Q 115.4 0.9 117.5 0.9 Q 118.7 0.9 120 1.5 A 4.931 4.931 0 0 1 121.258 2.32 A 4.302 4.302 0 0 1 122 3.2 Z M 5.1 1 L 39.7 1 Q 41.8 1 43.25 2.4 Q 44.7 3.8 44.7 5.9 A 4.94 4.94 0 0 1 44.442 7.53 A 4.2 4.2 0 0 1 43.25 9.3 A 5.058 5.058 0 0 1 40.024 10.592 A 6.548 6.548 0 0 1 39.7 10.6 L 9.5 10.6 L 10.5 8.9 L 10.5 31.3 L 9.6 30.3 L 35.2 30.3 Q 37.3 30.3 38.75 31.7 A 4.688 4.688 0 0 1 40.185 34.862 A 6.325 6.325 0 0 1 40.2 35.3 A 4.94 4.94 0 0 1 39.942 36.93 A 4.2 4.2 0 0 1 38.75 38.7 A 5.058 5.058 0 0 1 35.524 39.992 A 6.548 6.548 0 0 1 35.2 40 L 9.8 40 L 10.5 39.1 L 10.5 62.2 L 9.8 61.4 L 39.7 61.4 A 5.009 5.009 0 0 1 41.844 61.853 A 4.933 4.933 0 0 1 43.25 62.85 A 5.129 5.129 0 0 1 44.267 64.257 A 4.437 4.437 0 0 1 44.7 66.2 A 4.965 4.965 0 0 1 44.403 67.95 A 4.413 4.413 0 0 1 43.25 69.65 A 4.992 4.992 0 0 1 39.831 70.999 A 6.44 6.44 0 0 1 39.7 71 L 5.1 71 Q 3 71 1.5 69.55 A 4.839 4.839 0 0 1 0.002 66.037 A 6.352 6.352 0 0 1 0 65.9 L 0 6.1 A 5.296 5.296 0 0 1 0.33 4.203 A 4.786 4.786 0 0 1 1.5 2.45 Q 3 1 5.1 1 Z M 209.401 71.531 A 33.05 33.05 0 0 1 203.2 70 A 29.865 29.865 0 0 1 196.066 66.256 A 37.722 37.722 0 0 1 192.5 63.4 A 5.277 5.277 0 0 1 191.203 62.07 A 4.937 4.937 0 0 1 190.85 61.45 A 5.488 5.488 0 0 1 190.323 59.586 A 5.19 5.19 0 0 1 190.3 59.1 A 4.783 4.783 0 0 1 191.489 55.939 A 6.257 6.257 0 0 1 191.7 55.7 A 4.564 4.564 0 0 1 195.005 54.204 A 5.746 5.746 0 0 1 195.2 54.2 A 4.611 4.611 0 0 1 197.713 54.955 A 5.965 5.965 0 0 1 198.2 55.3 A 31.168 31.168 0 0 0 202.711 58.779 A 25.572 25.572 0 0 0 206.15 60.6 Q 210.3 62.4 215.9 62.4 A 21.472 21.472 0 0 0 220.646 61.893 A 18.406 18.406 0 0 0 223.25 61.1 A 16.392 16.392 0 0 0 226.052 59.711 A 12.173 12.173 0 0 0 228.6 57.6 Q 230.6 55.4 230.6 52.5 A 10.375 10.375 0 0 0 230.242 49.709 A 8.008 8.008 0 0 0 228.55 46.55 A 12.109 12.109 0 0 0 226.233 44.523 Q 225.08 43.736 223.641 43.076 A 22.808 22.808 0 0 0 222.65 42.65 Q 219.342 41.318 214.888 40.319 A 76.611 76.611 0 0 0 213.4 40 Q 208.4 39.1 204.45 37.5 A 25.908 25.908 0 0 1 200.37 35.431 A 21.14 21.14 0 0 1 197.7 33.45 Q 194.9 31 193.4 27.6 A 17.208 17.208 0 0 1 192.167 23.301 A 23.247 23.247 0 0 1 191.9 19.7 A 19.472 19.472 0 0 1 192.651 14.19 A 16.162 16.162 0 0 1 195.1 9.2 A 20.101 20.101 0 0 1 201.819 3.371 A 24.671 24.671 0 0 1 203.8 2.4 Q 209.3 0 216.2 0 Q 222.5 0 228 1.95 A 29.199 29.199 0 0 1 232.411 3.915 Q 234.948 5.322 236.84 7.142 A 18.503 18.503 0 0 1 236.9 7.2 A 8.936 8.936 0 0 1 238.166 8.542 Q 239.3 10.05 239.3 11.7 Q 239.3 13.5 237.85 15.05 A 5.264 5.264 0 0 1 236.604 16.05 A 4.202 4.202 0 0 1 234.5 16.6 Q 233.1 16.6 232.1 15.8 Q 230.5 14.1 227.8 12.75 Q 225.1 11.4 222.05 10.5 A 22.375 22.375 0 0 0 218.517 9.749 A 18.517 18.517 0 0 0 216.2 9.6 A 27.174 27.174 0 0 0 212.759 9.807 Q 210.99 10.033 209.479 10.507 A 15.166 15.166 0 0 0 208.5 10.85 A 14.198 14.198 0 0 0 206.148 12.015 Q 204.766 12.876 203.811 13.994 A 8.731 8.731 0 0 0 203.6 14.25 A 7.866 7.866 0 0 0 201.902 19.12 A 9.775 9.775 0 0 0 201.9 19.3 A 9.712 9.712 0 0 0 202.235 21.91 A 7.457 7.457 0 0 0 203.85 24.9 Q 205.8 27.1 209.3 28.45 Q 212.793 29.798 217.283 30.896 A 77.352 77.352 0 0 0 217.3 30.9 Q 222.8 32.1 227.15 33.6 A 29.112 29.112 0 0 1 231.105 35.283 A 21.838 21.838 0 0 1 234.5 37.45 Q 237.5 39.8 239.1 43.3 A 16.332 16.332 0 0 1 240.222 46.821 Q 240.566 48.5 240.662 50.441 A 31.342 31.342 0 0 1 240.7 52 A 17.848 17.848 0 0 1 239.564 58.437 A 16.511 16.511 0 0 1 237.3 62.5 A 22.274 22.274 0 0 1 229.539 68.93 A 26.576 26.576 0 0 1 228.35 69.5 A 28.471 28.471 0 0 1 219.322 71.844 A 34.631 34.631 0 0 1 216 72 A 44.278 44.278 0 0 1 209.401 71.531 Z M 65.5 61.2 L 95.8 61.2 Q 97.9 61.2 99.35 62.6 Q 100.8 64 100.8 66.1 A 4.987 4.987 0 0 1 100.443 68.012 A 4.651 4.651 0 0 1 99.35 69.6 Q 97.9 71 95.8 71 L 62.2 71 A 5.474 5.474 0 0 1 60.332 70.692 A 4.797 4.797 0 0 1 58.55 69.55 A 4.894 4.894 0 0 1 57.106 66.172 A 6.47 6.47 0 0 1 57.1 65.9 L 57.1 6.1 A 5.296 5.296 0 0 1 57.43 4.203 A 4.786 4.786 0 0 1 58.6 2.45 A 5.089 5.089 0 0 1 61.485 1.071 A 7.056 7.056 0 0 1 62.5 1 A 5.022 5.022 0 0 1 65.947 2.356 A 6.493 6.493 0 0 1 66.05 2.45 A 4.756 4.756 0 0 1 67.597 5.896 A 6.099 6.099 0 0 1 67.6 6.1 L 67.6 62.9 L 65.5 61.2 Z" vector-effect="non-scaling-stroke"/></g></svg>