<svg xmlns="http://www.w3.org/2000/svg" version="1.1" xmlns:xlink="http://www.w3.org/1999/xlink" xmlns:svgjs="http://svgjs.com/svgjs" width="512" height="512" x="0" y="0" viewBox="0 0 512 512" style="enable-background:new 0 0 512 512" xml:space="preserve" class=""><g><linearGradient id="a" x1="256" x2="256" y1="513.99" y2="159.993" gradientTransform="matrix(1 0 0 -1 0 514)" gradientUnits="userSpaceOnUse"><stop offset="0" style="stop-color:#2AF598"></stop><stop offset="1" style="stop-color:#009EFD"></stop></linearGradient><path d="M95.671 140.086 131 158.081V285.12l6.752 5.97c3.693 3.266 38.388 31.901 118.248 31.901 31.924 0 56.041-4.255 73.475-9.352a212.26 212.26 0 0 0 2.221 3.154c8.032 11.2 16.004 20.147 16.339 20.522l14.914 16.692 14.914-16.692c.335-.375 8.307-9.322 16.339-20.522 12.79-17.836 18.747-31.467 18.747-42.896 0-20.767-12.774-38.611-30.891-46.117v-70.237l34.272-17.457c12.133-6.181 19.67-18.479 19.67-32.095s-7.537-25.914-19.671-32.095L277.385 5.123c-13.391-6.818-29.379-6.818-42.77 0L95.67 75.896C83.537 82.077 76 94.375 76 107.991s7.537 25.914 19.671 32.095zm246.387 88.473c-17.167 7.912-29.109 25.259-29.109 45.338 0 .9.037 1.815.111 2.744-13.406 3.403-32.196 6.35-57.06 6.35-46.214 0-73.258-11.191-85-17.638v-86.897l63.615 32.403A47.133 47.133 0 0 0 256 215.973c7.345 0 14.69-1.705 21.386-5.115l64.672-32.941v50.642zm20.902 63.153c-5.438-7.831-9.406-14.822-10.007-18.137.173-5.313 4.59-9.584 9.995-9.584s9.822 4.271 9.995 9.584c-.604 3.36-4.534 10.305-9.983 18.137zM252.769 40.766a7.145 7.145 0 0 1 6.463 0l131.978 67.225-41.907 21.346-91.792-46.061-17.939 35.752 65.471 32.853-45.81 23.334a7.147 7.147 0 0 1-6.464.001l-131.978-67.225 131.978-67.225z" style="fill:url(#a);" fill=""></path><linearGradient id="b" x1="256" x2="256" y1="438.569" y2="2.009" gradientTransform="matrix(1 0 0 -1 0 514)" gradientUnits="userSpaceOnUse"><stop offset="0" style="stop-color:#2AF598"></stop><stop offset="1" style="stop-color:#009EFD"></stop></linearGradient><path d="M472 75.431v296.56c0 11.028-8.972 20-20 20H60c-11.028 0-20-8.972-20-20V75.431c-23.278 8.256-40 30.487-40 56.56v240c0 33.084 26.916 60 60 60h176v40h-84v40h208v-40h-84v-40h176c33.084 0 60-26.916 60-60v-240c0-26.073-16.722-48.304-40-56.56z" style="fill:url(#b);" fill=""></path></g></svg>