<svg xmlns="http://www.w3.org/2000/svg" version="1.1" xmlns:xlink="http://www.w3.org/1999/xlink" xmlns:svgjs="http://svgjs.com/svgjs" width="512" height="512" x="0" y="0" viewBox="0 0 512 512" style="enable-background:new 0 0 512 512" xml:space="preserve" class=""><g><linearGradient id="a" x1="0" x2="512" y1="-16838" y2="-16838" gradientTransform="matrix(1 0 0 -1 0 -16582)" gradientUnits="userSpaceOnUse"><stop offset="0" stop-color="#00f38d"></stop><stop offset="1" stop-color="#009eff"></stop></linearGradient><path fill="url(#a)" d="M512 256c0 141.387-114.613 256-256 256S0 397.387 0 256 114.613 0 256 0s256 114.613 256 256zm0 0" data-original="url(#a)" class=""></path><g fill="#fff"><path d="M412.094 125.516v214.312c0 7.969-6.485 14.453-14.453 14.453H114.359c-7.968 0-14.453-6.484-14.453-14.453V125.516C83.086 131.484 71 147.55 71 166.39v173.437c0 23.906 19.45 43.36 43.36 43.36H241v28.359h-60.156v30h150.312v-30H271v-28.36h126.64c23.91 0 43.36-19.453 43.36-43.359V166.391c0-18.84-12.086-34.907-28.906-40.875zm0 0" fill="#ffffff" data-original="#ffffff" class=""></path><path d="m139.887 172.727 25.234 12.855v91.715l5.063 4.476c2.687 2.375 27.902 23.192 85.816 23.192 22.86 0 40.203-3.016 52.809-6.653 4.828 7.028 10 13.137 13.293 16.825l11.183 12.52 11.188-12.52c7.664-8.582 25.496-30.258 25.496-46.196 0-15.105-9.215-28.101-22.324-33.687V185.19l24.468-12.464c8.95-4.559 14.512-13.633 14.512-23.68s-5.563-19.121-14.512-23.68l-100.41-51.144c-9.832-5.008-21.574-5.008-31.406 0L139.89 125.367c-8.954 4.559-14.516 13.633-14.516 23.68s5.562 19.121 14.512 23.68zm193.398 108.136c-3.613-5.261-6.21-9.883-6.672-12.203.149-3.515 3.086-6.332 6.672-6.332 3.59 0 6.528 2.817 6.676 6.332-.461 2.32-3.059 6.942-6.676 12.203zm-15.64-45.027c-12.422 5.867-21.036 18.5-21.036 33.105 0 .516.02 1.036.055 1.563-9.617 2.402-23.012 4.46-40.664 4.46-32.93 0-52.32-7.882-60.879-12.523v-61.578l45.176 23.012A34.616 34.616 0 0 0 256 227.629c5.395 0 10.79-1.25 15.703-3.754l45.942-23.402zm-63.73-134.883a4.617 4.617 0 0 1 4.17 0l94.419 48.094-29.078 14.812-66.09-33.16-.3.602a14.376 14.376 0 0 0-5.372-1.043c-7.98 0-14.453 6.472-14.453 14.453 0 5.215 2.773 9.773 6.914 12.312l-.242.489 46.347 23.258-32.14 16.37a4.625 4.625 0 0 1-4.176 0l-94.418-48.093zm0 0" fill="#ffffff" data-original="#ffffff" class=""></path></g></g></svg>